<mxfile host="app.diagrams.net" modified="2020-11-02T07:38:47.913Z" agent="5.0 (Windows NT 6.1; Win64; x64) AppleWebKit/537.36 (KHTML, like Gecko) Chrome/86.0.4240.111 Safari/537.36" etag="HDvRiomXZe43-Dx3KO9s" version="13.8.8" type="github">
  <diagram id="4KWZScW5BrotgxAgni-B" name="Page-1">
    <mxGraphModel dx="2842" dy="1305" grid="1" gridSize="10" guides="1" tooltips="1" connect="1" arrows="1" fold="1" page="1" pageScale="1" pageWidth="827" pageHeight="1169" math="0" shadow="0">
      <root>
        <mxCell id="0" />
        <mxCell id="1" parent="0" />
        <mxCell id="6_lkkP4v6VKRKNBHjHIn-1" value="Натиск кнопки &quot;Почати&quot;" style="rounded=0;whiteSpace=wrap;html=1;" vertex="1" parent="1">
          <mxGeometry x="350" y="240" width="120" height="60" as="geometry" />
        </mxCell>
        <mxCell id="6_lkkP4v6VKRKNBHjHIn-2" value="Запуск програми" style="ellipse;whiteSpace=wrap;html=1;" vertex="1" parent="1">
          <mxGeometry x="350" y="80" width="120" height="80" as="geometry" />
        </mxCell>
        <mxCell id="6_lkkP4v6VKRKNBHjHIn-3" value="" style="endArrow=none;html=1;entryX=0.5;entryY=1;entryDx=0;entryDy=0;exitX=0.5;exitY=0;exitDx=0;exitDy=0;" edge="1" parent="1" source="6_lkkP4v6VKRKNBHjHIn-1" target="6_lkkP4v6VKRKNBHjHIn-2">
          <mxGeometry width="50" height="50" relative="1" as="geometry">
            <mxPoint x="390" y="300" as="sourcePoint" />
            <mxPoint x="440" y="250" as="targetPoint" />
          </mxGeometry>
        </mxCell>
        <mxCell id="6_lkkP4v6VKRKNBHjHIn-4" value="" style="endArrow=none;html=1;entryX=0.5;entryY=1;entryDx=0;entryDy=0;" edge="1" parent="1" target="6_lkkP4v6VKRKNBHjHIn-1">
          <mxGeometry width="50" height="50" relative="1" as="geometry">
            <mxPoint x="410" y="400" as="sourcePoint" />
            <mxPoint x="320" y="340" as="targetPoint" />
          </mxGeometry>
        </mxCell>
        <mxCell id="6_lkkP4v6VKRKNBHjHIn-6" value="count := 0" style="shape=parallelogram;perimeter=parallelogramPerimeter;whiteSpace=wrap;html=1;fixedSize=1;" vertex="1" parent="1">
          <mxGeometry x="350" y="400" width="120" height="60" as="geometry" />
        </mxCell>
        <mxCell id="6_lkkP4v6VKRKNBHjHIn-7" value="" style="endArrow=none;html=1;entryX=0.5;entryY=1;entryDx=0;entryDy=0;" edge="1" parent="1" target="6_lkkP4v6VKRKNBHjHIn-6">
          <mxGeometry width="50" height="50" relative="1" as="geometry">
            <mxPoint x="410" y="560" as="sourcePoint" />
            <mxPoint x="460" y="510" as="targetPoint" />
          </mxGeometry>
        </mxCell>
        <mxCell id="6_lkkP4v6VKRKNBHjHIn-8" value="Вибор дати" style="rounded=0;whiteSpace=wrap;html=1;" vertex="1" parent="1">
          <mxGeometry x="350" y="560" width="120" height="60" as="geometry" />
        </mxCell>
        <mxCell id="6_lkkP4v6VKRKNBHjHIn-9" value="" style="endArrow=none;html=1;" edge="1" parent="1">
          <mxGeometry width="50" height="50" relative="1" as="geometry">
            <mxPoint x="409.58" y="720" as="sourcePoint" />
            <mxPoint x="409.58" y="620" as="targetPoint" />
          </mxGeometry>
        </mxCell>
        <mxCell id="6_lkkP4v6VKRKNBHjHIn-10" value="1915" style="rhombus;whiteSpace=wrap;html=1;" vertex="1" parent="1">
          <mxGeometry x="140" y="760" width="100" height="100" as="geometry" />
        </mxCell>
        <mxCell id="6_lkkP4v6VKRKNBHjHIn-13" value="" style="endArrow=none;html=1;entryX=0.5;entryY=1;entryDx=0;entryDy=0;" edge="1" parent="1" target="6_lkkP4v6VKRKNBHjHIn-10">
          <mxGeometry width="50" height="50" relative="1" as="geometry">
            <mxPoint x="190" y="960" as="sourcePoint" />
            <mxPoint x="219" y="880" as="targetPoint" />
          </mxGeometry>
        </mxCell>
        <mxCell id="6_lkkP4v6VKRKNBHjHIn-14" value="count += 1" style="shape=parallelogram;perimeter=parallelogramPerimeter;whiteSpace=wrap;html=1;fixedSize=1;" vertex="1" parent="1">
          <mxGeometry x="130" y="960" width="120" height="60" as="geometry" />
        </mxCell>
        <mxCell id="6_lkkP4v6VKRKNBHjHIn-15" value="" style="endArrow=none;html=1;" edge="1" parent="1" source="6_lkkP4v6VKRKNBHjHIn-14" target="6_lkkP4v6VKRKNBHjHIn-16">
          <mxGeometry width="50" height="50" relative="1" as="geometry">
            <mxPoint x="190" y="1120" as="sourcePoint" />
            <mxPoint x="190" y="1020" as="targetPoint" />
          </mxGeometry>
        </mxCell>
        <mxCell id="6_lkkP4v6VKRKNBHjHIn-16" value="Перегляд подій користувачем" style="rounded=0;whiteSpace=wrap;html=1;" vertex="1" parent="1">
          <mxGeometry x="130" y="1120" width="120" height="60" as="geometry" />
        </mxCell>
        <mxCell id="6_lkkP4v6VKRKNBHjHIn-17" value="1916" style="rhombus;whiteSpace=wrap;html=1;" vertex="1" parent="1">
          <mxGeometry x="360" y="760" width="100" height="100" as="geometry" />
        </mxCell>
        <mxCell id="6_lkkP4v6VKRKNBHjHIn-19" value="" style="endArrow=none;html=1;entryX=0.5;entryY=1;entryDx=0;entryDy=0;" edge="1" parent="1" target="6_lkkP4v6VKRKNBHjHIn-17">
          <mxGeometry width="50" height="50" relative="1" as="geometry">
            <mxPoint x="410" y="959.9999999999998" as="sourcePoint" />
            <mxPoint x="439" y="880" as="targetPoint" />
          </mxGeometry>
        </mxCell>
        <mxCell id="6_lkkP4v6VKRKNBHjHIn-20" value="count += 1" style="shape=parallelogram;perimeter=parallelogramPerimeter;whiteSpace=wrap;html=1;fixedSize=1;" vertex="1" parent="1">
          <mxGeometry x="350" y="960" width="120" height="60" as="geometry" />
        </mxCell>
        <mxCell id="6_lkkP4v6VKRKNBHjHIn-21" value="" style="endArrow=none;html=1;" edge="1" parent="1" source="6_lkkP4v6VKRKNBHjHIn-20" target="6_lkkP4v6VKRKNBHjHIn-22">
          <mxGeometry width="50" height="50" relative="1" as="geometry">
            <mxPoint x="410" y="1120" as="sourcePoint" />
            <mxPoint x="410" y="1020" as="targetPoint" />
          </mxGeometry>
        </mxCell>
        <mxCell id="6_lkkP4v6VKRKNBHjHIn-22" value="Перегляд подій користувачем" style="rounded=0;whiteSpace=wrap;html=1;" vertex="1" parent="1">
          <mxGeometry x="350" y="1120" width="120" height="60" as="geometry" />
        </mxCell>
        <mxCell id="6_lkkP4v6VKRKNBHjHIn-23" value="1917" style="rhombus;whiteSpace=wrap;html=1;" vertex="1" parent="1">
          <mxGeometry x="580" y="760" width="100" height="100" as="geometry" />
        </mxCell>
        <mxCell id="6_lkkP4v6VKRKNBHjHIn-25" value="" style="endArrow=none;html=1;entryX=0.5;entryY=1;entryDx=0;entryDy=0;" edge="1" parent="1" target="6_lkkP4v6VKRKNBHjHIn-23">
          <mxGeometry width="50" height="50" relative="1" as="geometry">
            <mxPoint x="630" y="959.9999999999998" as="sourcePoint" />
            <mxPoint x="659" y="880" as="targetPoint" />
          </mxGeometry>
        </mxCell>
        <mxCell id="6_lkkP4v6VKRKNBHjHIn-26" value="count += 1" style="shape=parallelogram;perimeter=parallelogramPerimeter;whiteSpace=wrap;html=1;fixedSize=1;" vertex="1" parent="1">
          <mxGeometry x="570" y="960" width="120" height="60" as="geometry" />
        </mxCell>
        <mxCell id="6_lkkP4v6VKRKNBHjHIn-27" value="" style="endArrow=none;html=1;" edge="1" parent="1" source="6_lkkP4v6VKRKNBHjHIn-26" target="6_lkkP4v6VKRKNBHjHIn-28">
          <mxGeometry width="50" height="50" relative="1" as="geometry">
            <mxPoint x="630" y="1120" as="sourcePoint" />
            <mxPoint x="630" y="1020" as="targetPoint" />
          </mxGeometry>
        </mxCell>
        <mxCell id="6_lkkP4v6VKRKNBHjHIn-28" value="Перегляд подій користувачем" style="rounded=0;whiteSpace=wrap;html=1;" vertex="1" parent="1">
          <mxGeometry x="570" y="1120" width="120" height="60" as="geometry" />
        </mxCell>
        <mxCell id="6_lkkP4v6VKRKNBHjHIn-29" value="1918" style="rhombus;whiteSpace=wrap;html=1;" vertex="1" parent="1">
          <mxGeometry x="800" y="760" width="100" height="100" as="geometry" />
        </mxCell>
        <mxCell id="6_lkkP4v6VKRKNBHjHIn-31" value="" style="endArrow=none;html=1;entryX=0.5;entryY=1;entryDx=0;entryDy=0;" edge="1" parent="1" target="6_lkkP4v6VKRKNBHjHIn-29">
          <mxGeometry width="50" height="50" relative="1" as="geometry">
            <mxPoint x="850" y="959.9999999999998" as="sourcePoint" />
            <mxPoint x="879" y="880" as="targetPoint" />
          </mxGeometry>
        </mxCell>
        <mxCell id="6_lkkP4v6VKRKNBHjHIn-32" value="count += 1" style="shape=parallelogram;perimeter=parallelogramPerimeter;whiteSpace=wrap;html=1;fixedSize=1;" vertex="1" parent="1">
          <mxGeometry x="790" y="960" width="120" height="60" as="geometry" />
        </mxCell>
        <mxCell id="6_lkkP4v6VKRKNBHjHIn-33" value="" style="endArrow=none;html=1;" edge="1" parent="1" source="6_lkkP4v6VKRKNBHjHIn-32" target="6_lkkP4v6VKRKNBHjHIn-34">
          <mxGeometry width="50" height="50" relative="1" as="geometry">
            <mxPoint x="850" y="1120" as="sourcePoint" />
            <mxPoint x="850" y="1020" as="targetPoint" />
          </mxGeometry>
        </mxCell>
        <mxCell id="6_lkkP4v6VKRKNBHjHIn-34" value="Перегляд подій користувачем" style="rounded=0;whiteSpace=wrap;html=1;" vertex="1" parent="1">
          <mxGeometry x="790" y="1120" width="120" height="60" as="geometry" />
        </mxCell>
        <mxCell id="6_lkkP4v6VKRKNBHjHIn-35" value="" style="endArrow=none;html=1;" edge="1" parent="1">
          <mxGeometry width="50" height="50" relative="1" as="geometry">
            <mxPoint x="850" y="720" as="sourcePoint" />
            <mxPoint x="190" y="720" as="targetPoint" />
          </mxGeometry>
        </mxCell>
        <mxCell id="6_lkkP4v6VKRKNBHjHIn-36" value="" style="endArrow=none;html=1;entryX=0.5;entryY=0;entryDx=0;entryDy=0;" edge="1" parent="1" target="6_lkkP4v6VKRKNBHjHIn-10">
          <mxGeometry width="50" height="50" relative="1" as="geometry">
            <mxPoint x="190" y="720" as="sourcePoint" />
            <mxPoint x="470" y="840" as="targetPoint" />
          </mxGeometry>
        </mxCell>
        <mxCell id="6_lkkP4v6VKRKNBHjHIn-37" value="" style="endArrow=none;html=1;entryX=0.5;entryY=0;entryDx=0;entryDy=0;" edge="1" parent="1" target="6_lkkP4v6VKRKNBHjHIn-29">
          <mxGeometry width="50" height="50" relative="1" as="geometry">
            <mxPoint x="850" y="720" as="sourcePoint" />
            <mxPoint x="740" y="820" as="targetPoint" />
          </mxGeometry>
        </mxCell>
        <mxCell id="6_lkkP4v6VKRKNBHjHIn-38" value="" style="endArrow=none;html=1;entryX=0.5;entryY=0;entryDx=0;entryDy=0;" edge="1" parent="1" target="6_lkkP4v6VKRKNBHjHIn-17">
          <mxGeometry width="50" height="50" relative="1" as="geometry">
            <mxPoint x="410" y="720" as="sourcePoint" />
            <mxPoint x="640" y="780" as="targetPoint" />
          </mxGeometry>
        </mxCell>
        <mxCell id="6_lkkP4v6VKRKNBHjHIn-39" value="" style="endArrow=none;html=1;exitX=0.5;exitY=0;exitDx=0;exitDy=0;" edge="1" parent="1" source="6_lkkP4v6VKRKNBHjHIn-23">
          <mxGeometry width="50" height="50" relative="1" as="geometry">
            <mxPoint x="590" y="830" as="sourcePoint" />
            <mxPoint x="630" y="720" as="targetPoint" />
          </mxGeometry>
        </mxCell>
        <mxCell id="6_lkkP4v6VKRKNBHjHIn-41" value="" style="endArrow=none;html=1;" edge="1" parent="1">
          <mxGeometry width="50" height="50" relative="1" as="geometry">
            <mxPoint x="860" y="1220" as="sourcePoint" />
            <mxPoint x="190" y="1220" as="targetPoint" />
          </mxGeometry>
        </mxCell>
        <mxCell id="6_lkkP4v6VKRKNBHjHIn-42" value="" style="endArrow=none;html=1;entryX=0.5;entryY=0;entryDx=0;entryDy=0;" edge="1" parent="1">
          <mxGeometry width="50" height="50" relative="1" as="geometry">
            <mxPoint x="189.57999999999998" y="1180" as="sourcePoint" />
            <mxPoint x="189.57999999999998" y="1220" as="targetPoint" />
          </mxGeometry>
        </mxCell>
        <mxCell id="6_lkkP4v6VKRKNBHjHIn-43" value="" style="endArrow=none;html=1;entryX=0.5;entryY=0;entryDx=0;entryDy=0;" edge="1" parent="1">
          <mxGeometry width="50" height="50" relative="1" as="geometry">
            <mxPoint x="860.17" y="1180" as="sourcePoint" />
            <mxPoint x="860.17" y="1220" as="targetPoint" />
            <Array as="points">
              <mxPoint x="860" y="1200" />
            </Array>
          </mxGeometry>
        </mxCell>
        <mxCell id="6_lkkP4v6VKRKNBHjHIn-44" value="" style="endArrow=none;html=1;entryX=0.5;entryY=0;entryDx=0;entryDy=0;" edge="1" parent="1">
          <mxGeometry width="50" height="50" relative="1" as="geometry">
            <mxPoint x="409.71000000000004" y="1180" as="sourcePoint" />
            <mxPoint x="409.71000000000004" y="1220" as="targetPoint" />
          </mxGeometry>
        </mxCell>
        <mxCell id="6_lkkP4v6VKRKNBHjHIn-45" value="" style="endArrow=none;html=1;exitX=0.5;exitY=0;exitDx=0;exitDy=0;" edge="1" parent="1">
          <mxGeometry width="50" height="50" relative="1" as="geometry">
            <mxPoint x="629.88" y="1220" as="sourcePoint" />
            <mxPoint x="629.88" y="1180" as="targetPoint" />
            <Array as="points">
              <mxPoint x="629.71" y="1180" />
            </Array>
          </mxGeometry>
        </mxCell>
        <mxCell id="6_lkkP4v6VKRKNBHjHIn-47" value="count = 5" style="rhombus;whiteSpace=wrap;html=1;" vertex="1" parent="1">
          <mxGeometry x="370" y="1280" width="80" height="80" as="geometry" />
        </mxCell>
        <mxCell id="6_lkkP4v6VKRKNBHjHIn-48" value="" style="endArrow=none;html=1;exitX=0.5;exitY=0;exitDx=0;exitDy=0;" edge="1" parent="1" source="6_lkkP4v6VKRKNBHjHIn-47">
          <mxGeometry width="50" height="50" relative="1" as="geometry">
            <mxPoint x="374" y="1280" as="sourcePoint" />
            <mxPoint x="410" y="1220" as="targetPoint" />
          </mxGeometry>
        </mxCell>
        <mxCell id="6_lkkP4v6VKRKNBHjHIn-63" value="1914" style="rhombus;whiteSpace=wrap;html=1;" vertex="1" parent="1">
          <mxGeometry x="-30" y="760" width="100" height="100" as="geometry" />
        </mxCell>
        <mxCell id="6_lkkP4v6VKRKNBHjHIn-64" value="" style="endArrow=none;html=1;entryX=0.5;entryY=1;entryDx=0;entryDy=0;" edge="1" parent="1" target="6_lkkP4v6VKRKNBHjHIn-63">
          <mxGeometry width="50" height="50" relative="1" as="geometry">
            <mxPoint x="20" y="959.9999999999998" as="sourcePoint" />
            <mxPoint x="49" y="880" as="targetPoint" />
          </mxGeometry>
        </mxCell>
        <mxCell id="6_lkkP4v6VKRKNBHjHIn-65" value="count += 1" style="shape=parallelogram;perimeter=parallelogramPerimeter;whiteSpace=wrap;html=1;fixedSize=1;" vertex="1" parent="1">
          <mxGeometry x="-40" y="960" width="120" height="60" as="geometry" />
        </mxCell>
        <mxCell id="6_lkkP4v6VKRKNBHjHIn-66" value="" style="endArrow=none;html=1;" edge="1" parent="1" source="6_lkkP4v6VKRKNBHjHIn-65" target="6_lkkP4v6VKRKNBHjHIn-67">
          <mxGeometry width="50" height="50" relative="1" as="geometry">
            <mxPoint x="20" y="1120" as="sourcePoint" />
            <mxPoint x="20" y="1020" as="targetPoint" />
          </mxGeometry>
        </mxCell>
        <mxCell id="6_lkkP4v6VKRKNBHjHIn-67" value="Перегляд подій користувачем" style="rounded=0;whiteSpace=wrap;html=1;" vertex="1" parent="1">
          <mxGeometry x="-40" y="1120" width="120" height="60" as="geometry" />
        </mxCell>
        <mxCell id="6_lkkP4v6VKRKNBHjHIn-68" value="" style="endArrow=none;html=1;entryX=0.5;entryY=0;entryDx=0;entryDy=0;" edge="1" parent="1" target="6_lkkP4v6VKRKNBHjHIn-63">
          <mxGeometry width="50" height="50" relative="1" as="geometry">
            <mxPoint x="20" y="720.0000000000002" as="sourcePoint" />
            <mxPoint x="300" y="840" as="targetPoint" />
          </mxGeometry>
        </mxCell>
        <mxCell id="6_lkkP4v6VKRKNBHjHIn-69" value="" style="endArrow=none;html=1;entryX=0.5;entryY=0;entryDx=0;entryDy=0;" edge="1" parent="1">
          <mxGeometry width="50" height="50" relative="1" as="geometry">
            <mxPoint x="19.579999999999927" y="1179.9999999999998" as="sourcePoint" />
            <mxPoint x="19.579999999999927" y="1219.9999999999998" as="targetPoint" />
          </mxGeometry>
        </mxCell>
        <mxCell id="6_lkkP4v6VKRKNBHjHIn-70" value="" style="endArrow=none;html=1;" edge="1" parent="1">
          <mxGeometry width="50" height="50" relative="1" as="geometry">
            <mxPoint x="20" y="720" as="sourcePoint" />
            <mxPoint x="200" y="720" as="targetPoint" />
          </mxGeometry>
        </mxCell>
        <mxCell id="6_lkkP4v6VKRKNBHjHIn-71" value="" style="endArrow=none;html=1;" edge="1" parent="1">
          <mxGeometry width="50" height="50" relative="1" as="geometry">
            <mxPoint x="20" y="1220" as="sourcePoint" />
            <mxPoint x="190" y="1220" as="targetPoint" />
          </mxGeometry>
        </mxCell>
        <mxCell id="6_lkkP4v6VKRKNBHjHIn-72" value="" style="endArrow=none;html=1;" edge="1" parent="1">
          <mxGeometry width="50" height="50" relative="1" as="geometry">
            <mxPoint x="410" y="1480" as="sourcePoint" />
            <mxPoint x="410" y="1360" as="targetPoint" />
          </mxGeometry>
        </mxCell>
        <mxCell id="6_lkkP4v6VKRKNBHjHIn-73" value="Button1.Visible := True;" style="rounded=0;whiteSpace=wrap;html=1;" vertex="1" parent="1">
          <mxGeometry x="350" y="1480" width="120" height="60" as="geometry" />
        </mxCell>
        <mxCell id="6_lkkP4v6VKRKNBHjHIn-74" value="" style="endArrow=none;html=1;entryX=0.5;entryY=1;entryDx=0;entryDy=0;" edge="1" parent="1" target="6_lkkP4v6VKRKNBHjHIn-73">
          <mxGeometry width="50" height="50" relative="1" as="geometry">
            <mxPoint x="410" y="1640" as="sourcePoint" />
            <mxPoint x="510" y="1440" as="targetPoint" />
          </mxGeometry>
        </mxCell>
        <mxCell id="6_lkkP4v6VKRKNBHjHIn-75" value="Натиск на кнопку тест" style="rounded=0;whiteSpace=wrap;html=1;" vertex="1" parent="1">
          <mxGeometry x="350" y="1640" width="120" height="60" as="geometry" />
        </mxCell>
        <mxCell id="6_lkkP4v6VKRKNBHjHIn-76" value="Відкриття форми з тестом" style="rounded=0;whiteSpace=wrap;html=1;" vertex="1" parent="1">
          <mxGeometry x="350" y="1800" width="120" height="60" as="geometry" />
        </mxCell>
        <mxCell id="6_lkkP4v6VKRKNBHjHIn-77" value="" style="endArrow=none;html=1;entryX=0.5;entryY=1;entryDx=0;entryDy=0;exitX=0.5;exitY=0;exitDx=0;exitDy=0;" edge="1" parent="1" source="6_lkkP4v6VKRKNBHjHIn-76" target="6_lkkP4v6VKRKNBHjHIn-75">
          <mxGeometry width="50" height="50" relative="1" as="geometry">
            <mxPoint x="380" y="1800" as="sourcePoint" />
            <mxPoint x="430" y="1750" as="targetPoint" />
          </mxGeometry>
        </mxCell>
        <mxCell id="6_lkkP4v6VKRKNBHjHIn-78" value="" style="endArrow=none;html=1;" edge="1" parent="1">
          <mxGeometry width="50" height="50" relative="1" as="geometry">
            <mxPoint x="409.5" y="1960" as="sourcePoint" />
            <mxPoint x="409.5" y="1860" as="targetPoint" />
          </mxGeometry>
        </mxCell>
        <mxCell id="6_lkkP4v6VKRKNBHjHIn-79" value="Проходження тесту" style="rounded=0;whiteSpace=wrap;html=1;" vertex="1" parent="1">
          <mxGeometry x="350" y="1960" width="120" height="60" as="geometry" />
        </mxCell>
        <mxCell id="6_lkkP4v6VKRKNBHjHIn-80" value="" style="endArrow=none;html=1;" edge="1" parent="1">
          <mxGeometry width="50" height="50" relative="1" as="geometry">
            <mxPoint x="409.58" y="2120" as="sourcePoint" />
            <mxPoint x="409.58" y="2020" as="targetPoint" />
            <Array as="points">
              <mxPoint x="409.58" y="2070" />
            </Array>
          </mxGeometry>
        </mxCell>
        <mxCell id="6_lkkP4v6VKRKNBHjHIn-81" value="Натиск на кнопку завершити" style="rounded=0;whiteSpace=wrap;html=1;" vertex="1" parent="1">
          <mxGeometry x="350" y="2120" width="120" height="60" as="geometry" />
        </mxCell>
        <mxCell id="6_lkkP4v6VKRKNBHjHIn-82" value="Показ оцінки" style="rounded=0;whiteSpace=wrap;html=1;" vertex="1" parent="1">
          <mxGeometry x="350" y="2270" width="120" height="60" as="geometry" />
        </mxCell>
        <mxCell id="6_lkkP4v6VKRKNBHjHIn-83" value="" style="endArrow=none;html=1;" edge="1" parent="1" source="6_lkkP4v6VKRKNBHjHIn-82" target="6_lkkP4v6VKRKNBHjHIn-81">
          <mxGeometry width="50" height="50" relative="1" as="geometry">
            <mxPoint x="364" y="2230" as="sourcePoint" />
            <mxPoint x="414" y="2180" as="targetPoint" />
          </mxGeometry>
        </mxCell>
        <mxCell id="6_lkkP4v6VKRKNBHjHIn-84" value="" style="endArrow=none;html=1;" edge="1" parent="1">
          <mxGeometry width="50" height="50" relative="1" as="geometry">
            <mxPoint x="410" y="2440" as="sourcePoint" />
            <mxPoint x="410" y="2330" as="targetPoint" />
          </mxGeometry>
        </mxCell>
        <mxCell id="6_lkkP4v6VKRKNBHjHIn-85" value="Кінець" style="ellipse;whiteSpace=wrap;html=1;" vertex="1" parent="1">
          <mxGeometry x="350" y="2440" width="120" height="80" as="geometry" />
        </mxCell>
      </root>
    </mxGraphModel>
  </diagram>
</mxfile>
